<?xml version="1.0" standalone="no"?>
<!DOCTYPE svg PUBLIC "-//W3C//DTD SVG 20010904//EN"
 "http://www.w3.org/TR/2001/REC-SVG-20010904/DTD/svg10.dtd">
<svg version="1.0" xmlns="http://www.w3.org/2000/svg"
 width="1280.000000pt" height="1280.000000pt" viewBox="0 0 1280.000000 1280.000000"
 preserveAspectRatio="xMidYMid meet">
<metadata>
Created by potrace 1.15, written by Peter Selinger 2001-2017
</metadata>
<g transform="translate(0.000000,1280.000000) scale(0.100000,-0.100000)"
fill="#000000" stroke="none">
<path d="M7410 11860 c-158 -28 -272 -65 -407 -130 -161 -77 -284 -163 -412
-285 -318 -306 -527 -725 -620 -1245 l-18 -95 -69 3 c-93 4 -332 -14 -435 -34
-102 -19 -240 -58 -316 -89 l-57 -23 -62 104 c-214 359 -528 631 -900 778
-328 129 -719 160 -1074 84 -760 -162 -1243 -697 -1340 -1483 -16 -128 -13
-432 5 -578 47 -383 162 -749 314 -999 333 -550 1037 -1057 1945 -1400 71 -27
132 -51 136 -53 4 -3 -3 -47 -16 -97 -13 -51 -24 -94 -24 -96 0 -1 13 4 30 13
16 8 33 15 38 15 5 0 12 -24 15 -53 8 -76 53 -185 144 -349 44 -79 126 -226
183 -328 125 -225 172 -298 326 -506 65 -89 147 -201 181 -250 34 -49 110
-147 168 -219 181 -224 348 -437 413 -525 33 -47 93 -121 132 -165 124 -139
175 -227 271 -470 86 -217 111 -286 130 -358 11 -43 29 -101 40 -130 11 -28
30 -97 41 -152 11 -55 31 -129 45 -165 36 -98 50 -166 73 -372 11 -103 25
-199 31 -215 6 -15 17 -84 24 -153 21 -193 55 -451 65 -487 6 -25 1 -54 -25
-135 -35 -107 -72 -303 -99 -518 -20 -161 -30 -330 -18 -310 5 8 12 63 16 121
12 204 71 561 113 691 l27 83 14 -60 c12 -50 12 -75 2 -150 -7 -49 -16 -153
-20 -230 -4 -77 -15 -166 -24 -198 -18 -62 -36 -256 -25 -263 11 -6 19 37 19
106 0 36 9 101 20 145 13 49 24 139 29 235 11 196 26 244 35 115 3 -49 10
-117 15 -150 7 -54 15 -81 53 -190 6 -16 13 -51 15 -77 4 -36 11 -51 29 -63
16 -10 24 -25 24 -45 0 -33 19 -80 32 -80 4 0 8 8 8 18 0 33 -39 358 -45 372
-3 8 -15 76 -26 150 -19 121 -22 188 -26 654 -3 347 -1 551 6 614 6 52 32 167
57 256 40 140 63 197 180 440 74 153 170 336 213 405 43 69 98 164 121 211 23
47 63 118 87 158 25 40 90 171 145 290 113 247 330 644 459 838 47 72 99 165
114 205 16 41 51 121 78 179 27 58 60 134 74 169 13 35 30 75 37 89 l13 24 31
-38 c17 -21 35 -35 39 -30 4 4 0 52 -10 106 -9 55 -14 106 -11 114 3 9 61 36
127 62 543 210 747 294 1017 417 929 423 1509 854 1720 1274 177 355 220 879
103 1283 -140 488 -484 900 -948 1137 -173 88 -380 156 -557 184 -69 10 -78
14 -78 33 0 89 -25 322 -45 418 -158 774 -769 1342 -1564 1452 -155 22 -415
20 -551 -4z m100 -4629 c44 -245 126 -520 242 -814 73 -184 247 -547 338 -702
l52 -90 -34 -28 c-18 -15 -52 -40 -75 -55 -41 -26 -54 -42 -33 -42 5 0 34 -9
63 -20 l54 -20 -39 -98 c-21 -53 -59 -140 -85 -192 -25 -52 -53 -118 -63 -145
-26 -75 -55 -128 -132 -243 -39 -57 -122 -197 -185 -310 -63 -114 -122 -218
-130 -231 -9 -14 -65 -130 -124 -260 -60 -129 -133 -275 -163 -325 -29 -50
-72 -128 -94 -172 -23 -45 -72 -131 -110 -190 -38 -60 -128 -231 -201 -379
-121 -247 -137 -286 -186 -455 -29 -102 -58 -210 -63 -240 -10 -48 -10 -41 -6
55 3 61 9 198 14 305 7 175 13 218 54 416 25 122 50 234 56 249 6 16 20 117
31 224 27 270 37 343 59 441 10 47 22 112 25 145 25 233 210 1011 284 1190 16
39 40 113 55 165 14 52 41 142 61 200 27 80 40 143 55 273 11 93 35 246 54
340 19 95 37 208 41 252 4 44 13 107 21 140 31 132 37 176 43 325 6 147 7 155
26 152 10 -2 30 -12 44 -23 13 -11 26 -17 29 -15 7 8 -26 83 -64 149 l-35 60
46 44 c26 24 49 43 51 40 2 -2 13 -54 24 -116z m-213 -45 c-32 -42 -57 -77
-57 -79 0 -3 20 -2 44 0 25 3 56 3 70 -1 26 -6 26 -8 26 -102 0 -100 -20 -254
-45 -359 -9 -33 -22 -120 -30 -194 -8 -73 -22 -159 -30 -190 -20 -80 -52 -277
-66 -411 -8 -87 -23 -152 -59 -265 -27 -82 -55 -177 -64 -211 -9 -34 -27 -86
-41 -117 -44 -100 -208 -740 -254 -992 -11 -60 -25 -150 -31 -200 -6 -49 -18
-116 -26 -147 -17 -67 -36 -208 -59 -438 -9 -91 -29 -219 -45 -285 -16 -66
-45 -204 -65 -308 -31 -164 -35 -208 -36 -350 0 -89 -4 -180 -8 -202 l-8 -40
-7 30 c-5 17 -12 46 -17 67 -5 20 -20 137 -34 260 -14 122 -29 239 -34 258 -5
19 -12 69 -15 110 -8 86 -38 265 -66 390 -11 47 -25 144 -30 215 -13 148 -12
142 -73 365 -51 186 -87 389 -117 660 -11 102 -27 214 -35 250 -19 83 -45 298
-45 368 l0 54 38 -7 c20 -3 41 -11 47 -16 5 -5 15 -9 22 -9 20 0 -4 42 -71
124 -36 44 -53 72 -48 80 5 6 85 106 179 221 525 648 838 1089 1058 1492 49
90 50 91 69 73 19 -19 18 -20 -37 -94z m-2848 -385 c137 -206 452 -546 686
-740 217 -180 486 -371 710 -505 61 -36 117 -69 125 -74 13 -8 9 -23 -27 -102
-32 -70 -38 -90 -25 -85 9 3 36 10 60 14 l42 8 0 -39 c0 -59 30 -295 45 -363
8 -33 26 -159 40 -280 33 -297 65 -471 125 -685 41 -146 53 -208 65 -336 8
-86 19 -173 25 -193 14 -55 58 -298 65 -366 3 -33 15 -116 25 -185 11 -69 26
-195 35 -280 9 -85 27 -200 39 -255 20 -82 22 -111 15 -165 -5 -36 -11 -166
-14 -290 -6 -215 -35 -494 -54 -513 -10 -10 -13 7 -46 288 -14 121 -32 254
-40 295 -8 41 -24 149 -35 240 -26 220 -37 280 -71 375 -16 44 -38 123 -48
176 -11 53 -29 120 -41 150 -11 30 -29 89 -40 131 -11 42 -41 130 -66 195 -25
65 -60 156 -78 203 -44 113 -120 263 -165 325 -19 28 -67 86 -106 130 -39 44
-95 114 -124 155 -78 108 -252 330 -341 435 -92 109 -218 273 -287 375 -29 41
-108 152 -177 245 -119 161 -258 389 -411 675 -34 63 -75 138 -92 165 -53 87
-103 226 -103 288 l0 55 48 7 c26 3 60 2 75 -4 15 -6 27 -6 27 -2 0 5 -38 45
-85 88 l-85 78 122 223 c67 122 125 222 128 222 3 0 30 -36 59 -79z m2070
-4841 c-6 -69 -13 -127 -15 -129 -6 -7 -5 113 3 224 5 82 8 94 15 65 4 -19 3
-91 -3 -160z m35 -978 c9 -68 25 -169 35 -225 11 -56 22 -135 26 -175 6 -71 6
-73 -13 -63 -13 7 -22 25 -25 48 -3 21 -15 70 -27 108 -38 122 -49 177 -61
305 -21 215 -21 234 -5 297 11 42 16 107 16 213 0 83 6 195 13 248 12 93 12
83 18 -268 4 -251 12 -403 23 -488z m-85 308 l-12 -55 -10 37 c-6 27 -4 57 7
107 9 38 17 83 18 98 1 15 4 -8 6 -52 2 -44 -2 -105 -9 -135z"/>
</g>
</svg>
